<svg xmlns="http://www.w3.org/2000/svg" viewBox="0 0 1000 600"><path fill="#000" d="M0 0h1000v600H0z"/><g transform="matrix(.63016 0 0 .63016 0 55.97)"><rect width="333.333" height="333.333" x="198.363" y="220.585" fill="#fff" rx="13.333" ry="13.333"/><path d="M364.182 419.189h-13.187v-5.168q0-7.934 1.469-13.667 1.496-5.704 5.224-10.645 3.727-4.97 10.363-10.533 7.737-6.467 12.255-10.985 4.518-4.518 6.523-9.064 1.977-4.575 1.977-11.041 0-10.307-6.664-15.813-6.636-5.507-18.75-5.507-9.827 0-17.48 2.457-7.624 2.485-14.683 5.958l-5.76-13.3q8.132-4.264 17.676-6.947 9.516-2.682 21.235-2.682 19.174 0 29.678 9.488 10.533 9.488 10.533 26.063 0 9.234-2.993 15.729-2.965 6.495-8.415 11.916-5.478 5.422-12.905 11.465-6.551 5.563-10.024 9.77-3.502 4.236-4.773 8.641-1.299 4.433-1.299 10.59v3.275Zm-17.564 29.96q0-6.946 3.276-9.855 3.276-2.936 8.443-2.936 4.857 0 8.274 2.936 3.445 2.909 3.445 9.855 0 6.862-3.445 9.997-3.417 3.106-8.274 3.106-5.167 0-8.443-3.106-3.276-3.135-3.276-9.997Z"/><path fill="#fff" d="M653.737 341.576q15.39 0 24.558 10.58 9.17 10.602 9.17 31.868 0 14.043-4.21 23.597-4.19 9.532-11.82 14.427-7.63 4.873-17.997 4.873-6.54 0-11.499-1.731-4.959-1.71-8.485-4.66-3.548-2.928-5.878-6.369h-.898q.235 2.928.577 7.053.32 4.126.32 7.225v33.813H615.03v-119.18h10.302l1.645 12.162h.599q2.415-3.74 5.878-6.86 3.44-3.121 8.442-4.96 5.002-1.838 11.841-1.838Zm-2.18 10.516q-8.57 0-13.786 3.292-5.236 3.313-7.63 9.896-2.415 6.561-2.565 16.479v2.415q0 10.452 2.308 17.655 2.287 7.224 7.588 10.964 5.3 3.762 14.235 3.762 7.651 0 12.781-4.125 5.108-4.147 7.61-11.542 2.521-7.395 2.521-17.013 0-14.577-5.664-23.19-5.685-8.593-17.398-8.593Zm95.049-10.516q2.479 0 5.193.257 2.693.256 4.81.705l-1.582 11.585q-2.03-.535-4.51-.834-2.48-.3-4.66-.3-4.958 0-9.361 1.989-4.382 1.987-7.695 5.706-3.313 3.72-5.193 8.956-1.881 5.215-1.881 11.606v44.18H709.18v-82.353h10.367l1.367 15.175h.513q2.565-4.574 6.177-8.379 3.591-3.804 8.379-6.048 4.766-2.245 10.623-2.245Zm96.48 42.513q0 10.152-2.629 18.124-2.629 7.951-7.588 13.444-4.958 5.493-11.99 8.379-7.01 2.885-15.88 2.885-8.272 0-15.155-2.885-6.86-2.886-11.862-8.379-5.001-5.493-7.737-13.444-2.757-7.972-2.757-18.124 0-13.509 4.595-23.02 4.574-9.511 13.102-14.513 8.528-4.98 20.326-4.98 11.285 0 19.728 5.023 8.464 5.044 13.145 14.534 4.702 9.512 4.702 22.956Zm-62.667 0q0 9.917 2.629 17.205 2.629 7.289 8.122 11.286 5.493 3.975 14.127 3.975 8.571 0 14.086-3.975 5.514-3.997 8.143-11.286 2.629-7.288 2.629-17.205 0-9.832-2.629-17.014-2.629-7.181-8.1-11.071-5.494-3.912-14.214-3.912-12.846 0-18.809 8.486-5.984 8.485-5.984 23.51Zm155.236 0q0 10.152-2.629 18.124-2.629 7.951-7.587 13.444-4.96 5.493-11.97 8.379-7.032 2.885-15.902 2.885-8.271 0-15.132-2.885-6.882-2.886-11.884-8.379-5.001-5.493-7.737-13.444-2.736-7.972-2.736-18.124 0-13.509 4.574-23.02 4.595-9.511 13.123-14.513 8.528-4.98 20.327-4.98 11.264 0 19.706 5.023 8.464 5.044 13.166 14.534 4.681 9.512 4.681 22.956Zm-62.667 0q0 9.917 2.629 17.205 2.629 7.289 8.122 11.286 5.493 3.975 14.128 3.975 8.57 0 14.085-3.975 5.536-3.997 8.165-11.286 2.628-7.288 2.628-17.205 0-9.832-2.628-17.014-2.63-7.181-8.122-11.071-5.493-3.912-14.193-3.912-12.866 0-18.83 8.486-5.984 8.485-5.984 23.51Zm173.66-42.513q13.594 0 20.519 7.096 6.904 7.096 6.904 22.806v53.947h-12.312v-53.348q0-10.003-4.338-14.983-4.318-5.002-12.803-5.002-11.948 0-17.356 6.904-5.407 6.925-5.407 20.369v46.06h-12.397v-53.348q0-6.69-1.923-11.115-1.924-4.445-5.707-6.668-3.805-2.202-9.576-2.202-8.207 0-13.166 3.377-4.958 3.377-7.16 10.024-2.223 6.648-2.223 16.351v43.581h-12.482v-82.352h10.067l1.881 11.648h.684q2.48-4.296 6.241-7.224 3.762-2.928 8.421-4.424 4.66-1.497 9.918-1.497 9.383 0 15.73 3.484 6.349 3.506 9.213 10.623h.662q4.061-7.117 11.136-10.623 7.053-3.484 15.474-3.484Zm91.757 0q15.39 0 24.558 10.58 9.17 10.602 9.17 31.868 0 14.043-4.21 23.597-4.211 9.532-11.842 14.427-7.609 4.873-17.975 4.873-6.54 0-11.499-1.731-4.959-1.71-8.507-4.66-3.526-2.928-5.856-6.369h-.898q.214 2.928.556 7.053.342 4.126.342 7.225v33.813h-12.546v-119.18H1110l1.645 12.162h.599q2.415-3.74 5.856-6.86 3.463-3.121 8.464-4.96 5.002-1.838 11.841-1.838Zm-2.18 10.516q-8.57 0-13.807 3.292-5.215 3.313-7.61 9.896-2.414 6.561-2.564 16.479v2.415q0 10.452 2.287 17.655 2.308 7.224 7.588 10.964 5.3 3.762 14.256 3.762 7.651 0 12.76-4.125 5.108-4.147 7.63-11.542 2.522-7.395 2.522-17.013 0-14.577-5.685-23.19-5.664-8.593-17.377-8.593Zm84.233 64.613q3.078 0 6.306-.513 3.227-.535 5.258-1.283v9.683q-2.18.983-6.05 1.667-3.868.662-7.544.662-6.54 0-11.884-2.287-5.322-2.287-8.528-7.78-3.184-5.471-3.184-15.175V352.84h-11.735v-6.091l11.799-4.873 4.958-17.89h7.524v19.087h24.11v9.767h-24.11v48.454q0 7.759 3.57 11.585 3.569 3.826 9.51 3.826Zm26.376.897q0-5.258 2.543-7.459 2.565-2.223 6.241-2.223 3.826 0 6.455 2.223 2.629 2.201 2.629 7.46 0 5.193-2.63 7.566-2.628 2.35-6.454 2.35-3.676 0-6.241-2.35-2.543-2.373-2.543-7.567Zm73.097-75.876q14.727 0 21.865 6.604 7.14 6.605 7.14 21.118v55.977h-9.085l-2.415-12.183h-.598q-3.441 4.51-7.203 7.566-3.762 3.035-8.678 4.574-4.916 1.54-12.055 1.54-7.523 0-13.358-2.63-5.814-2.629-9.148-7.95-3.356-5.344-3.356-13.53 0-12.333 9.768-18.937 9.768-6.626 29.752-7.224l14.214-.599v-5.023q0-10.687-4.596-14.961-4.574-4.275-12.91-4.275-6.476 0-12.332 1.88-5.856 1.86-11.114 4.425l-3.826-9.468q5.557-2.864 12.76-4.873 7.224-2.031 15.175-2.031Zm16.693 50.72v-7.588l-12.546.513q-15.41.598-21.716 5.044-6.326 4.424-6.326 12.546 0 7.054 4.296 10.43 4.274 3.4 11.35 3.4 10.964 0 17.953-6.092 6.99-6.092 6.99-18.253Zm38.024-49.373h12.46v82.352h-12.46v-82.352Zm6.39-30.821q3.078 0 5.28 2.009 2.223 1.988 2.223 6.198 0 4.125-2.223 6.156-2.202 2.03-5.28 2.03-3.248 0-5.386-2.03-2.137-2.03-2.137-6.156 0-4.21 2.137-6.198 2.138-2.01 5.386-2.01Z"/></g></svg>